<?xml version="1.0" encoding="utf-8"?>
<!-- Generator: Adobe Illustrator 17.0.0, SVG Export Plug-In . SVG Version: 6.00 Build 0)  -->
<!DOCTYPE svg PUBLIC "-//W3C//DTD SVG 1.1//EN" "http://www.w3.org/Graphics/SVG/1.1/DTD/svg11.dtd">
<svg version="1.1" id="Livello_1" xmlns="http://www.w3.org/2000/svg" xmlns:xlink="http://www.w3.org/1999/xlink" x="0px" y="0px"
	 width="595.28px" height="841.89px" viewBox="0 0 595.28 841.89" enable-background="new 0 0 595.28 841.89" xml:space="preserve">
<g>
	<path fill="#452701" d="M529.799,156.045H65.481c-21.371,0-38.693,17.323-38.693,38.693s17.323,38.693,38.693,38.693h464.318
		c21.371,0,38.693-17.323,38.693-38.693S551.17,156.045,529.799,156.045z"/>
	<path fill="#452701" d="M529.799,316.771H65.481c-21.371,0-38.693,17.323-38.693,38.693s17.323,38.693,38.693,38.693h464.318
		c21.371,0,38.693-17.323,38.693-38.693S551.17,316.771,529.799,316.771z"/>
	<path fill="#452701" d="M568.492,516.19c0-21.371-17.323-38.693-38.693-38.693H65.481c-21.371,0-38.693,17.323-38.693,38.693
		s17.323,38.693,38.693,38.693h464.318C551.17,554.883,568.492,537.56,568.492,516.19z"/>
</g>
</svg>
